<svg width="168" height="168" viewBox="0 0 168 168" fill="none" xmlns="http://www.w3.org/2000/svg">
<g clip-path="url(#clip0_196_289)">
<path fill-rule="evenodd" clip-rule="evenodd" d="M85.0888 64.0457C85.5732 60.5138 84.7683 56.9495 82.2152 53.5748C74.3169 43.1359 63.3152 41.8786 52.1693 45.3786C35.8944 50.4899 19.327 65.8903 12.2925 76.7025C11.9588 77.2142 12.1054 77.8986 12.6161 78.2298C13.1278 78.5635 13.8131 78.4195 14.1468 77.9078C20.9736 67.4131 37.0383 52.4485 52.8328 47.4869C63.0672 44.2734 73.1986 45.3212 80.4517 54.9101C82.6124 57.7625 83.2815 60.7726 82.8797 63.76C80.9234 63.5274 78.9863 63.3531 77.072 63.2389C71.7877 62.9248 58.1037 64.6529 49.3184 69.2853C43.0173 72.6099 39.2379 77.4203 41.8587 83.8009C43.3162 87.347 46.5329 89.091 50.6867 89.3272C56.3972 89.6554 63.9688 87.0596 70.551 82.8016C76.0317 79.2575 80.8201 74.5741 83.3223 69.5596C83.87 68.4563 84.3138 67.3388 84.6319 66.2124C111.702 69.9531 141.31 84.7577 159.032 104.779C159.437 105.234 160.134 105.279 160.592 104.873C161.05 104.469 161.092 103.77 160.689 103.314C142.677 82.9673 112.62 67.9006 85.0888 64.0457ZM82.4024 65.9284C80.5634 65.7139 78.7417 65.5526 76.9407 65.4461C71.8768 65.1468 58.7681 66.8024 50.3509 71.2412C45.185 73.9646 41.7555 77.7321 43.9031 82.9616C45.0327 85.7073 47.5968 86.9353 50.8127 87.122C54.3506 87.3237 58.6433 86.2838 62.9288 84.4082C69.435 81.5606 75.9196 76.7789 79.7147 71.303C80.9178 69.5688 81.8461 67.763 82.4024 65.9284Z" fill="#1400FF"/>
<path fill-rule="evenodd" clip-rule="evenodd" d="M118.189 99.1546C131.13 96.6194 147.086 99.6469 159.298 104.804C159.86 105.041 160.508 104.777 160.745 104.215C160.983 103.654 160.721 103.004 160.159 102.767C147.567 97.4474 131.106 94.3727 117.764 96.9853C117.167 97.1018 116.776 97.6831 116.894 98.283C117.01 98.8802 117.591 99.2711 118.189 99.1546Z" fill="#1400FF"/>
<path fill-rule="evenodd" clip-rule="evenodd" d="M160.327 102.551C151.851 95.5717 145.954 82.1677 144.747 71.2219C144.68 70.6146 144.134 70.1745 143.527 70.2437C142.92 70.3103 142.483 70.8554 142.549 71.4627C143.814 82.9296 150.042 96.945 158.922 104.257C159.392 104.646 160.091 104.577 160.479 104.107C160.867 103.635 160.799 102.938 160.327 102.551Z" fill="#1400FF"/>
</g>
<defs>
<clipPath id="clip0_196_289">
<rect width="130" height="130" fill="white" transform="translate(121.527) rotate(69.1992)"/>
</clipPath>
</defs>
</svg>
