<svg width="146" height="128" viewBox="0 0 146 128" fill="none" xmlns="http://www.w3.org/2000/svg">
<path d="M46.5368 39.0246C42.3018 47.2817 37.0639 57.0084 29.794 63.027C25.7954 66.3373 32.9067 67.5314 35.9685 69.0086C44.1866 72.9736 52.5436 75.6205 61.0816 78.7545C68.1164 81.3368 74.4001 85.6544 81.1502 88.9111C88.6681 92.5383 89.7856 90.884 93.3803 83.4335C96.8339 76.2752 100.994 62.7114 108.305 58.3958" stroke="#1400FF" stroke-width="3" stroke-linecap="round"/>
<path d="M51.1248 39.3417C46.4565 38.1636 47.7288 38.8771 51.5994 39.8867C63.7259 43.0499 75.2521 46.9821 87.8105 48.139C93.464 48.6598 99.0375 49.25 104.486 50.9167C105.213 51.139 103.18 50.2341 102.84 50.0699" stroke="#1400FF" stroke-width="3" stroke-linecap="round"/>
<path d="M54.6264 43.8757C48.8839 37.3203 55.3692 42.8205 57.5088 46.636C60.8094 52.5215 63.5842 63.0717 69.4046 67.0722C71.6182 68.5936 81.5156 61.621 83.6381 60.7175C91.1706 57.5111 100.017 58.3713 107.111 54.975" stroke="#1400FF" stroke-width="3" stroke-linecap="round"/>
<path d="M124.639 52.0539C129.665 51.2162 134.447 49.4912 139.489 48.7885" stroke="#1400FF" stroke-width="3" stroke-linecap="round"/>
<path d="M128.195 60.4066C130.072 60.3801 140.78 59.0433 140.818 61.7561" stroke="#1400FF" stroke-width="3" stroke-linecap="round"/>
<path d="M42.2392 32.2103C38.7343 29.5015 36.5537 26.4606 34.128 22.8185C33.0591 21.2137 33.1316 21.7702 33.3266 23.1694" stroke="#1400FF" stroke-width="3" stroke-linecap="round"/>
<path d="M38.4743 36.083C34.4329 34.0212 31.2253 30.8233 27.252 28.7722C26.5115 28.3899 23.9296 27.1692 26.141 28.2362" stroke="#1400FF" stroke-width="3" stroke-linecap="round"/>
<path d="M23.2866 69.5274C18.7711 66.6545 14.8639 66.7362 9.6447 66.6857C7.72389 66.6671 4.45644 66.2429 6.84433 68.2318" stroke="#1400FF" stroke-width="3" stroke-linecap="round"/>
<path d="M22.2002 73.7443C17.005 74.0215 11.915 73.6215 6.76024 74.3018C4.92946 74.5435 0.616602 73.827 3.13336 75.9233" stroke="#1400FF" stroke-width="3" stroke-linecap="round"/>
<path d="M73.0448 103.964C75.6959 106.39 78.2797 110.283 81.5593 111.865" stroke="#1400FF" stroke-width="3" stroke-linecap="round"/>
<path d="M85.2164 100.355C86.2225 103.976 87.533 108.239 91.4505 109.052" stroke="#1400FF" stroke-width="3" stroke-linecap="round"/>
</svg>
