<svg width="123" height="111" viewBox="0 0 123 111" fill="none" xmlns="http://www.w3.org/2000/svg">
<path d="M71.2202 60.0656C77.9583 56.9247 77.5272 48.3853 73.4194 43.0982C66.7081 34.4605 56.8311 44.4377 55.7153 52.6153C55.1518 56.745 57.1326 60.5936 60.2724 62.972C63.044 65.0715 66.3424 64.5912 69.4675 63.3962C73.1309 61.9952 76.6307 57.4509 75.0291 53.362" stroke="#1400FF" stroke-width="3" stroke-linecap="round"/>
<path d="M95.6675 72.7205C95.8123 69.5066 96.1754 66.4511 95.6312 63.2506C94.6717 57.6076 92.7069 52.0715 90.3893 46.8469C84.3566 33.2474 75.1587 18.5147 61.3859 11.5512C57.9156 9.79668 53.0893 7.7523 49.1568 9.14161C45.3627 10.482 41.9653 13.3023 39.5942 16.4741C36.4277 20.71 35.4179 25.8112 35.3268 31.0208C35.179 39.4727 36.5353 47.9429 38.5636 56.1348C40.6299 64.48 44.1407 72.288 48.0961 79.9078C51.3476 86.1717 55.0239 92.5191 60.5024 97.1305C67.1782 102.75 75.7327 105.396 83.7273 100.681C90.6174 96.6178 93.4088 89.1337 94.7904 81.5871C96.6744 71.2964 95.9374 62.1888 92.6878 52.5001" stroke="#1400FF" stroke-width="3" stroke-linecap="round"/>
<path d="M108.5 35.7685C105.388 34.3252 99.8743 33.8109 96.5 33.777C90.3415 33.7149 83.6397 34.3965 77.4907 34.7202C70.3586 35.0957 63.1073 37.0102 56.1093 38.3629C46.6883 40.184 37.0114 41.4703 27.8981 44.5211C19.1513 47.4492 4.54483 53.3864 5.98727 65.0817C6.47781 69.0591 9.56949 72.2246 12.8911 74.158C19.1485 77.8003 26.4775 79.974 33.5252 81.4904C49.6893 84.9681 67.1349 82.3506 82.3437 76.5028C93.2851 72.2958 106.512 66.4547 113.087 56.2816C116.316 51.2865 118.738 43.3641 113.606 38.665C107.141 32.7457 90.9178 33.2755 83 34.5505" stroke="#1400FF" stroke-width="3" stroke-linecap="round"/>
<path d="M73.2529 84.0118C75.4599 81.4586 76.5116 78.5828 72.8109 76.8627C68.6531 74.9302 62.8703 77.1773 64.8971 82.7025C67.7468 90.4711 79.415 82.9397 72.9936 76.8288C70.6229 74.5728 67.2696 76.4372 66.4388 79.3123C65.5371 82.4328 69.2493 84.504 71.8861 83.2051C74.4627 81.9359 75.1734 78.6635 72.2846 77.1874C69.4474 75.7377 64.8529 78.0801 66.6044 81.6572C67.8012 84.1016 71.1958 84.1938 72.7832 82.1207C74.5729 79.7835 70.122 77.5902 68.324 78.7735C65.8925 80.3737 68.7609 83.618 70.8805 83.543C73.8927 83.4364 70.8829 79.6207 69.1694 79.3645C66.44 78.9564 67.4824 81.7787 69.2124 82.4325C72.4347 83.6502 70.4255 80.31 68.1074 80.2712C65.1106 80.221 69.9405 84.9217 71.0239 83.346C71.8585 82.1322 68.318 81.2973 67.7144 81.6313" stroke="#1400FF" stroke-width="3" stroke-linecap="round"/>
<path d="M42.8694 16.903C43.7903 15.9392 44.8722 15.064 44.8946 13.6558C44.9369 10.9985 40.7387 9.09014 38.4528 8.71619C31.161 7.52334 33.2613 18.6354 39.1825 18.5285C45.307 18.4179 45.1051 11.4221 40.4679 9.11501C35.6846 6.73521 33.7086 14.5132 37.3678 16.9848C41.8079 19.9839 45.4844 13.7016 40.8212 11.0518C35.3194 7.9254 33.3806 14.9071 38.0683 17.2688C41.2689 18.8813 44.3656 12.749 39.0689 11.8501C34.0279 10.9945 35.6676 18.1138 40.2159 17.3594C44.5817 16.6352 40.9213 11.6875 37.5664 13.7398C34.0443 15.8943 40.6998 18.9948 41.4466 16.4103C42.2589 13.5992 33.7976 11.9712 36.4429 15.5964C37.2843 16.7494 39.1294 18.2394 40.4375 16.8934C42.04 15.2445 39.3212 13.7221 37.9736 13.0828C33.4021 10.9141 34.4416 17.0169 38.6823 17.0997C42.495 17.1741 36.4827 12.8598 36.7887 15.2274C36.9467 16.4499 38.1156 17.03 39.2278 17.3184C40.5076 17.6503 40.2301 16.2632 39.4621 15.7553C39.225 15.5986 36.7008 14.4782 36.8104 15.1522C36.9776 16.1799 38.1595 17.1338 39.1931 17.288C40.4981 17.4828 37.6698 15.6396 37.4436 15.5186C36.1852 14.8453 35.3378 15.474 36.7434 16.4375C37.1183 16.6945 40.1282 18.4151 40.3731 17.5678C40.7108 16.399 37.1995 15.2646 36.4092 15.0362C34.2419 14.41 39.7928 19.6871 39.2848 16.5195C39.0115 14.8159 37.1753 13.2345 35.77 12.283C34.2056 11.2238 35.7394 12.7601 36.1963 13.14C36.5284 13.4163 39.4828 15.4843 39.9124 14.7235C40.5974 13.5103 37.0192 12.6303 36.3318 12.4453C33.9506 11.8045 37.5543 13.5325 38.2226 13.7256C38.6817 13.8582 42.1193 13.8637 40.8444 12.8524C39.765 11.9961 37.8734 11.3445 36.5138 11.2137C34.797 11.0485 34.9283 11.7347 36.3535 12.3701C38.2036 13.1948 44.7556 13.6379 40.5591 11.2818C37.7433 9.7009 35.7462 11.8461 38.9576 12.8372C40.9787 13.4609 44.5501 12.2267 41.2765 10.7552C40.559 10.4327 38.9588 9.54609 38.1011 9.85806C37.2123 10.1813 37.997 11.2079 38.4704 11.514C41.446 13.4384 42.9872 10.4138 39.1921 9.31715C37.4265 8.80693 33.5986 8.99246 34.1826 11.4574C34.2614 11.7901 35.0191 14.1085 35.0621 14.0558C35.5669 13.4373 35.3844 9.23612 36.3924 9.52739C37.0642 9.72152 34.7605 12.4665 34.5937 13.0439" stroke="#1400FF" stroke-width="3" stroke-linecap="round"/>
<path d="M67.9045 81.7901C67.2082 81.5889 64.3001 81.2351 66.2209 82.5731C66.5198 82.7813 69.6904 84.2386 69.095 83.4446C68.83 83.0912 66.4416 82.1755 66.171 82.5997C65.5333 83.5993 67.9977 84.7696 68.6144 85.1077C69.4847 85.5847 68.1073 84.4287 67.6453 84.2952C66.192 83.8753 67.0605 85.3203 67.7418 85.7155C68.3901 86.0916 69.6265 86.2758 69.4963 85.1987C69.4168 84.5415 70.3684 85.1085 70.0234 84.9824C69.5476 84.8085 70.9177 84.5345 71.1019 84.3931C71.4202 84.1488 69.7398 83.7947 69.8505 83.8267C70.1916 83.9253 72.2591 83.5946 71.7774 83.2982C71.4847 83.1182 69.8468 82.9343 70.3839 83.2232C70.587 83.3324 72.7663 83.8805 72.7092 83.3627C72.6157 82.5162 69.4035 82.2232 70.2437 82.466C71.1921 82.7401 72.4063 82.5769 72.5488 81.4325C72.6891 80.306 69.3081 78.4187 69.6164 79.5204C70.1139 81.298 75.0008 79.7862 71.5199 78.7804C70.4478 78.4706 70.3234 79.5049 71.225 79.8009C71.967 80.0445 74.0565 79.998 72.7878 78.7782C72.1517 78.1665 70.3253 76.7661 69.3914 77.4486C68.5332 78.0758 68.8134 79.104 69.7435 79.3728C71.7843 79.9625 68.2034 78.3731 67.1315 78.618C66.4985 78.7626 66.8351 79.7438 67.4432 79.7319C68.3173 79.7149 69.6167 78.4983 70.3317 78.0684C71.9255 77.1103 67.2282 77.9806 66.6636 78.4828C65.7243 79.3185 65.743 82.1074 65.743 82.1074C65.743 82.1074 64.9425 78.2576 66.3331 78.0187" stroke="#1400FF" stroke-width="3" stroke-linecap="round"/>
<path d="M74.3869 49.2511C75.1803 46.2739 73.8337 44.3683 70.8473 43.026C69.1705 42.2724 69.0499 44.3215 69.6746 45.2673C70.3509 46.2914 72.6236 48.5135 74.0627 47.6471C75.6158 46.7121 71.9954 43.4121 71.2835 42.8794C70.4944 42.2888 68.0277 40.0637 67.4773 41.9683C67.1623 43.0585 70.0898 44.9888 71.0328 45.2612C72.7182 45.7482 72.7398 44.2442 71.9343 43.2772C71.1105 42.2882 67.7567 40.7836 66.4025 41.448C64.8659 42.2018 70.0639 45.9932 71.6524 44.3285C73.7845 42.0942 62.9236 40.9047 65.1173 43.3211C65.7301 43.9961 68.1052 44.6456 69.0303 44.6197C70.1937 44.587 71.2851 43.0841 69.9788 42.3975C68.4501 41.594 65.9804 41.8665 64.5045 42.6406C62.6371 43.6201 63.8973 44.1237 65.359 43.9993C66.1357 43.9332 69.0157 43.6894 68.81 42.3534C68.6251 41.1524 65.5077 41.8251 64.8876 41.9961C64.1438 42.2013 60.8222 43.4486 63.3212 42.5714C63.8159 42.3977 66.8681 41.0026 66.0826 41.0409C64.7265 41.1068 63.0722 41.717 61.9819 42.4361C60.9582 43.1113 64.6935 41.7818 65.2586 41.6209C65.8579 41.4502 69.111 39.7394 66.9661 40.7088C65.1944 41.5096 63.3532 42.0602 61.9063 43.3792C61.125 44.0915 60.6606 44.2394 59.929 45.0734C59.265 45.8302 59.0013 46.618 58.7295 47.5587C58.4096 48.6659 59.004 48.9339 59.9739 48.4007C61.1239 47.7685 61.6702 45.864 62.4625 44.8615C64.996 41.6556 61.1189 43.8072 59.8482 45.05C58.9234 45.9546 58.6173 46.5842 58.2653 47.8021C57.9537 48.8805 56.9231 49.4781 56.6825 50.5542C56.5601 51.1012 57.2194 51.4219 57.0066 52.1582C56.9448 52.372 56.3879 53.8254 56.6758 53.9086C56.7442 53.9284 56.721 52.1623 56.6655 51.9758C56.2833 50.6916 55.697 50.8594 56.0734 52.0564C56.7374 54.168 59.8271 59.0146 62.3013 59.7296C62.3488 59.7433 60.138 57.711 59.7379 57.3946C58.6243 56.5137 55.4657 53.6685 56.5776 54.5515C57.8443 55.5575 58.9142 57.2407 59.7993 58.5451C60.1497 59.0616 61.9774 59.9814 60.9887 59.3503C59.9214 58.6689 59.3561 57.7458 58.1004 57.3829C56.6779 56.9719 58.2943 58.5416 58.725 58.7801C59.063 58.9673 60.9169 60.9745 61.308 60.3655C61.8427 59.533 58.821 58.1992 58.2802 57.8964C57.3965 57.4015 56.3729 57.6909 57.5538 58.4416C58.8429 59.2612 60.05 60.8655 61.7021 61.0458C63.3203 61.2224 60.6233 59.0422 60.3603 58.875C59.1279 58.0915 58.3424 56.9759 57.4836 55.8831C57.2044 55.5279 57.064 53.7271 56.7743 53.6434C55.8007 53.3621 57.0396 56.9874 57.129 57.1861C58.372 59.9505 60.6931 59.6621 62.6478 61.2561C63.1037 61.6279 66.1963 61.824 64.9013 61.6346C63.7505 61.4664 62.692 61.279 61.535 61.0185C61.0987 60.9203 63.0076 62.1992 63.4942 62.3398C63.8866 62.4532 65.972 62.9645 65.8667 62.8366C65.309 62.1595 62.9924 61.6883 62.1388 61.6545C60.1384 61.5753 61.8322 62.317 62.7327 62.4764C63.9972 62.7002 67.7974 63.2057 66.5632 62.849C65.5494 62.5561 62.3856 62.7003 63.4181 62.5276C65.4912 62.1808 67.5223 62.0982 69.5951 61.6694C72.5883 61.0503 72.339 59.7151 73.8071 57.3905C74.2559 56.6798 76.3672 54.3529 75.8458 53.7423C75.1789 52.9611 75.0499 47.1682 74.8147 51.5564C74.7815 52.1754 75.6304 55.6554 76.1869 53.9247C76.8076 51.9941 75.9592 50.5072 75.7828 48.5847C75.7457 48.1807 74.3775 46.5579 74.1634 47.2986C73.8015 48.5513 74.7193 50.8114 75.3645 51.925C76.2282 53.4157 76.8008 49.64 76.7231 49.192C76.481 47.7955 74.9489 44.6089 73.1075 44.8958C67.0446 45.8402 71.0522 54.3334 72.9381 52.902C74.8998 51.4131 74.4532 49.0351 73.5173 47.1119C72.8814 45.8054 70.7074 44.4186 70.0994 46.5228C69.526 48.5073 71.1698 50.2515 73.1987 50.3342C75.5997 50.4322 75.1252 47.1222 73.6165 46.2386C72.0706 45.3331 68.2153 44.3297 68.3245 47.2896C68.3777 48.7317 70.8528 52.1646 72.6563 50.8488C75.709 48.6215 70.4508 45.5546 68.5876 45.0162C67.3441 44.6568 63.1182 46.0807 64.6147 47.9377C66.4596 50.227 72.4836 46.2787 65.9441 45.1543C65.2487 45.0347 59.8012 45.7176 61.5051 47.0391C63.0867 48.2659 65.3416 48.0399 66.673 46.6445C68.2353 45.0074 65.9026 44.4034 64.3185 44.4958C62.9109 44.5779 61.4619 44.8123 60.2141 45.4494C60.0392 45.5388 58.1457 46.7361 58.8806 47.0359C60.6523 47.7589 63.9486 46.1517 65.4194 45.3803C67.1053 44.496 62.2306 46.0306 61.7512 46.1873C61.4059 46.3001 58.2501 47.567 58.7913 47.7234C60.0005 48.0728 61.3954 47.6723 62.5911 47.5208C63.777 47.3705 66.8715 46.2194 66.4643 46.4584C64.3917 47.6747 60.187 46.8261 58.5585 48.4532C58.2024 48.809 60.1912 48.7275 60.2299 48.7264C62.1088 48.6737 63.9875 48.7049 65.8669 48.6771C66.7346 48.6643 68.899 49.4128 68.4712 48.6745C68.1864 48.1828 66.0784 48.4394 65.7098 48.4639C63.6267 48.602 61.5165 48.5125 59.4538 48.8378C57.3526 49.1691 59.9397 49.3838 60.5579 49.4085C63.7568 49.5363 66.9957 48.962 70.182 49.1898C72.8769 49.3825 64.7867 48.9431 62.0895 48.8023C61.2621 48.7591 65.2399 48.0799 65.9046 48.0167C67.5244 47.8629 69.1036 47.8365 70.7062 48.2085C72.1127 48.535 72.6125 48.7384 70.8128 48.2184C69.1503 47.738 67.4877 47.2575 65.8252 46.7771C65.4141 46.6584 64.2054 46.3091 65.381 46.6488C68.1676 47.454 70.9541 48.2592 73.7407 49.0644C75.4741 49.5653 70.3769 47.7363 68.793 46.8795C64.449 44.5298 68.3303 47.3835 70.0706 48.5912C71.5728 49.6337 73.035 50.9879 74.6388 51.8622C75.8514 52.5231 73.9648 50.3359 73.8223 50.2207C73.2292 49.7414 67.0287 46.209 68.749 48.1674C69.4537 48.9696 73.8848 54.2693 74.9374 53.8573C75.6947 53.561 70.4948 49.4339 69.9689 49.1702C67.1722 47.7679 72.0588 52.3895 72.4715 52.8511C72.9655 53.4037 73.6892 54.6714 74.4828 54.9007C75.0576 55.0668 74.6806 54.0006 74.5662 53.855C73.8548 52.9497 70.7893 51.5109 69.5681 51.8443C68.5734 52.1159 71.8738 54.9064 72.5134 55.1288C74.7319 55.8999 72.3677 53.0175 71.8847 52.5347C71.6057 52.2559 68.9789 50.3665 69.1039 52.0878C69.1689 52.9816 71.4105 54.2507 72.293 54.226C73.0689 54.2042 72.4316 53.162 72.2248 52.9476C70.7277 51.3958 68.6924 50.3606 66.7737 49.4006C63.694 47.8598 63.6962 48.7538 65.9748 50.5753C66.4623 50.9649 72.3642 54.3016 72.2701 53.5481C72.0707 51.9529 65.2855 50.0614 63.9587 49.678C60.3124 48.6244 67.8341 52.8385 68.526 53.1794C69.1426 53.4832 72.6373 54.7627 70.4732 53.4064C68.028 51.874 60.3682 48.1678 62.4146 50.1758C63.5023 51.2431 67.8123 53.0151 66.334 52.588" stroke="#1400FF" stroke-width="3" stroke-linecap="round"/>
<path d="M62.603 55.6788C67.8785 54.9721 62.6145 52.752 60.1494 52.5051C58.3388 52.3238 61.0199 55.5696 61.2804 55.852C62.6166 57.3008 64.1449 58.043 65.9336 58.7934C67.5812 59.4847 66.8588 58.5016 66.0526 57.7864C64.0839 56.04 61.7941 56.046 59.3134 55.3689C56.3137 54.5501 57.896 55.4168 59.4101 56.4918C61.5959 58.0438 63.9479 59.8308 66.3622 61.0001C67.3019 61.4553 68.2045 61.3541 67.3568 60.1767C66.1509 58.5017 63.6224 57.2871 61.7949 56.452C56.3773 53.9762 60.1696 59.732 63.2473 60.829C66.5205 61.9957 68.4122 61.6893 64.7194 59.0674C61.3829 56.6985 58.9312 58.1519 63.6322 60.2113C70.0147 63.0073 66.5985 57.1243 63.5527 54.7729C63.1041 54.4267 59.1095 52.2195 59.3584 52.6237C60.4213 54.3491 62.4915 55.4985 64.3265 56.1421C69.6124 57.996 67.8924 54.5732 64.8383 52.2285C64.0866 51.6514 60.5654 49.138 59.5422 50.5593C58.6286 51.8285 62.0282 53.5304 62.6215 53.9484C63.6926 54.703 65.0198 56.3077 66.3039 56.6788C68.2325 57.2361 65.9138 54.26 65.7139 54.0783C63.9991 52.5197 61.7189 50.4939 59.4417 49.8359C57.653 49.3191 58.5983 51.8536 59.2697 52.5444C60.145 53.4452 66.6769 57.9113 64.7669 53.6658C63.9658 51.8852 56.4494 48.3057 57.4166 51.6965C57.9413 53.5359 64.2538 55.0691 63.2577 53.0561C62.0343 50.5839 55.2027 48.6157 57 53.1383C57.8116 55.1806 64.9738 60.2949 65.3753 55.369C65.699 51.3983 57.1576 49.9815 57.7817 53.0517C58.6822 57.482 66.844 59.9136 70.1767 56.9647C73.3828 54.1279 66.8544 49.2866 64.5883 52.2604C62.5869 54.8867 65.4645 59.9712 68.7403 59.6739C73.0244 59.2851 70.9626 55.5105 68.1582 54.7846C64.2416 53.7709 66.2127 58.4575 68.7112 59.1795C71.7048 60.0445 74.7661 56.2236 71.6261 54.657C69.7651 53.7285 68.9774 56.7733 70.0312 57.8252C71.9826 59.7733 73.7659 57.8696 72.0693 56.6943C70.233 55.4223 67.2224 57.7585 69.5193 57.5732C73.856 57.2233 71.1955 52.7374 68.2349 52.3768C63.9625 51.8565 66.5661 56.1991 68.9915 56.9C74.146 58.3894 72.0299 53.404 68.5073 52.3861C64.1701 51.1328 66.2015 56.0373 68.5987 57.3072C73.043 59.6615 72.5597 54.6031 69.4557 53.3892C65.21 51.7287 66.8494 57.7119 69.0339 59.1339C72.8155 61.5956 73.0895 55.0015 69.129 53.3295C65.3357 51.728 64.2784 55.8929 66.9229 58.1073C71.1202 61.622 73.6693 55.5601 69.7097 53.4625C66.9788 52.0159 62.3594 53.9696 65.0738 57.3647C67.1974 60.0209 72.7082 58.954 70.0893 55.4815C68.3499 53.1751 63.6595 54.5281 64.9997 57.621C66.9846 62.2015 74.6232 61.851 72.3827 56.6807C71.3328 54.2577 63.1902 48.7658 62.8755 54.0218C62.6424 57.9143 70.7627 60.0313 71.855 56.0075C73.287 50.7318 64.2146 48.728 61.435 51.6269C60.0012 53.1222 59.3267 55.8755 61.1997 57.3214C62.7977 58.555 64.9914 56.7644 66.2496 55.7952C70.2464 52.7166 67.5035 49.7154 63.0103 50.9365C58.4076 52.1875 58.2536 57.5642 63.3067 58.2427C67.9105 58.8608 67.4766 52.8183 64.5724 51.0061C62.6968 49.8357 56.1779 50.8006 59.3135 52.5413C61.188 53.5819 69.0013 54.8005 67.0021 50.2155C65.6135 47.031 57.6147 47.2694 58.9456 49.5001C60.6417 52.343 67.8569 52.8405 68.7771 48.715C69.9617 43.4037 59.7703 43.34 61.1506 49.6354C62.0662 53.8114 69.7442 60.7205 72.9237 54.9278C74.8982 51.3305 68.7815 49.083 66.6794 51.0942C65.0076 52.6937 68.6469 60.1398 71.2413 57.7742C73.6519 55.5761 72.347 50.5201 69.3261 53.0046C66.4136 55.3999 69.9377 59.9532 72.937 59.1667C76.4876 58.2356 76.2707 53.0732 72.3549 54.2775C70.0719 54.9795 68.0937 58.4615 71.4503 59.4314C72.295 59.6755 73.3036 58.4478 72.7042 57.7109C71.482 56.2085 68.5039 54.6678 66.6504 54.7655C60.5697 55.0859 65.2273 60.7308 67.1372 58.7941C69.2432 56.6585 64.8046 52.3449 63.7458 56.009" stroke="#1400FF" stroke-width="3" stroke-linecap="round"/>
</svg>
