<svg width="40" height="43" viewBox="0 0 40 43" fill="none" xmlns="http://www.w3.org/2000/svg">
<path fill-rule="evenodd" clip-rule="evenodd" d="M15.7316 8.60818C15.6146 7.91363 15.5264 7.22696 15.4694 6.54021C15.3836 5.51009 15.4366 4.4721 15.4062 3.44198C15.3929 3.00496 15.3406 1.8656 15.3617 1.70171C15.5529 0.273594 16.7055 0.0550568 17.0427 0.0160371C17.2058 -0.00737467 18.8805 -0.194585 19.2418 1.66275C19.6851 3.9337 19.8271 6.22022 19.6703 8.45995C20.0363 10.3641 20.6622 12.2604 21.4886 13.9773C24.7772 20.8057 31.0437 21.4691 37.8331 21.4067C38.8773 21.391 39.7444 22.2104 39.799 23.2484C39.8536 24.2941 39.0763 25.1994 38.0369 25.293C34.2418 25.6598 27.5085 28.7034 25.1806 31.8718C24.6936 32.5351 24.4104 34.1349 24.0358 35.7035C23.5129 37.8808 22.891 40.0347 22.1941 40.9399C22.0895 41.0804 20.8182 42.5164 20.4389 42.7271C19.5274 43.2265 18.7978 42.9377 18.3834 42.6724C17.969 42.4071 17.5 41.8842 17.3127 41.018C17.1168 40.1127 17.2823 38.2553 17.2518 37.8573C17.141 36.4136 16.8523 33.5808 16.2631 31.146C15.9455 29.8349 15.6068 28.6253 15.0464 28.0244C12.9722 25.8003 9.65548 26.1281 6.86245 26.4948C6.54171 26.5339 6.22097 26.5807 5.90101 26.6197C4.76398 26.9553 3.55668 27.205 2.28073 27.3533C0.353941 27.5796 0.0371229 25.8081 0.0199542 25.691C-0.0159439 25.4335 -0.149405 24.1068 1.30291 23.5762C1.46133 23.5215 2.63037 23.264 3.08066 23.1625C3.70809 23.0221 4.34254 22.9129 4.97934 22.8114C11.5573 20.7668 15.1299 15.023 15.7316 8.60818ZM17.9893 15.702C20.4725 20.837 24.241 23.3186 28.708 24.4424H28.7072C25.9181 25.9017 23.381 27.7279 22.0364 29.5618C21.526 30.2564 21.0578 31.6532 20.6356 33.2218C20.407 31.7625 20.0979 30.2095 19.6898 28.8828C19.2255 27.3688 18.6003 26.1125 17.9027 25.3633C16.5557 23.9196 14.8654 23.1158 13.0478 22.7178C15.2236 20.7902 16.8733 18.3866 17.9893 15.702Z" fill="#1400FF"/>
</svg>
