<svg width="57" height="54" viewBox="0 0 57 54" fill="none" xmlns="http://www.w3.org/2000/svg">
<path fill-rule="evenodd" clip-rule="evenodd" d="M25.4608 19.67C20.1392 15.2956 15.8272 10.0862 12.5869 4.01683C11.9388 2.80794 10.4309 2.34681 9.20951 2.99488C8.00063 3.64294 7.53942 5.15096 8.18748 6.3723C11.7518 13.0149 16.4628 18.7229 22.2954 23.521C23.3547 24.3934 24.9374 24.2439 25.8098 23.1845C26.6822 22.1127 26.5201 20.5424 25.4608 19.67Z" fill="#1400FF"/>
<path fill-rule="evenodd" clip-rule="evenodd" d="M22.6231 2.63361C22.8972 7.66856 23.1466 12.7035 23.4581 17.7384C23.5454 19.1093 24.7293 20.1562 26.1002 20.069C27.4711 19.9817 28.518 18.7978 28.4307 17.4269C28.1192 12.4044 27.8699 7.38194 27.5957 2.34699C27.5209 0.979833 26.337 -0.0732743 24.9661 0.00399461C23.5952 0.0812636 22.5358 1.25897 22.6231 2.63361Z" fill="#1400FF"/>
<path fill-rule="evenodd" clip-rule="evenodd" d="M41.1253 3.65556C37.9349 8.46618 34.3208 12.9029 30.6817 17.3894C29.8093 18.4612 29.9712 20.0316 31.043 20.8915C32.1148 21.7639 33.6852 21.6019 34.5451 20.5301C38.2839 15.9313 41.9978 11.3575 45.288 6.40978C46.0482 5.26321 45.7241 3.71788 44.5775 2.95765C43.4434 2.19743 41.8855 2.50899 41.1253 3.65556Z" fill="#1400FF"/>
<path fill-rule="evenodd" clip-rule="evenodd" d="M53.4841 21.5396C44.835 21.9259 35.6499 21.9384 27.0008 21.39C25.6299 21.3153 24.446 22.3497 24.3587 23.733C24.2715 25.1039 25.3183 26.2879 26.6892 26.3751C35.5129 26.9235 44.8849 26.911 53.7085 26.5247C55.0794 26.4624 56.1511 25.2909 56.0888 23.92C56.0265 22.5491 54.855 21.4773 53.4841 21.5396Z" fill="#1400FF"/>
<path fill-rule="evenodd" clip-rule="evenodd" d="M22.2888 23.1222C27.6229 29.6527 33.1439 36.0586 38.0916 42.8882C38.9017 43.9973 40.4596 44.2465 41.5813 43.4364C42.6904 42.6264 42.9396 41.0685 42.1295 39.9593C37.1195 33.0549 31.5363 26.5743 26.1399 19.9691C25.2675 18.9098 23.6971 18.7478 22.6378 19.6202C21.566 20.4926 21.4164 22.0629 22.2888 23.1222Z" fill="#1400FF"/>
<path fill-rule="evenodd" clip-rule="evenodd" d="M23.9041 25.017C25.3 31.8217 25.6863 38.3273 25.786 45.2192C25.7985 46.5901 26.9326 47.6867 28.3035 47.6743C29.6869 47.6494 30.7836 46.5277 30.7587 45.1443C30.659 37.9284 30.2477 31.1362 28.7896 24.0076C28.503 22.6616 27.1944 21.7891 25.8359 22.0758C24.49 22.35 23.6175 23.6711 23.9041 25.017Z" fill="#1400FF"/>
<path fill-rule="evenodd" clip-rule="evenodd" d="M24.1292 24.4689C20.0913 32.5447 18.01 41.5179 13.6855 49.4193C13.0249 50.6157 13.4735 52.1361 14.6824 52.7967C15.8913 53.4572 17.3994 53.0085 18.0599 51.8121C22.4094 43.8608 24.5155 34.8379 28.5908 26.6997C29.2015 25.4659 28.703 23.9704 27.4816 23.3472C26.2478 22.7365 24.7524 23.2351 24.1292 24.4689Z" fill="#1400FF"/>
<path fill-rule="evenodd" clip-rule="evenodd" d="M26.3514 22.6363C18.3129 24.0571 10.2869 24.7052 2.19862 25.6648C0.827714 25.8268 -0.144379 27.0606 0.0176365 28.4315C0.179652 29.8024 1.41358 30.7745 2.78448 30.6125C10.96 29.6529 19.0857 28.9799 27.2239 27.5467C28.5699 27.2974 29.4796 26.0013 29.2428 24.6553C28.9936 23.2969 27.7098 22.3871 26.3514 22.6363Z" fill="#1400FF"/>
<path fill-rule="evenodd" clip-rule="evenodd" d="M31.9448 18.8482C30.2873 18.7735 28.7169 18.6613 27.0968 18.4245C25.7259 18.2251 24.4671 19.1722 24.2677 20.5307C24.0683 21.8891 25.0154 23.1603 26.3739 23.3597C28.1685 23.6215 29.9009 23.7461 31.7204 23.8208C33.0913 23.8832 34.2628 22.8238 34.3126 21.4404C34.3749 20.0695 33.3157 18.9105 31.9448 18.8482Z" fill="#1400FF"/>
</svg>
