<svg width="65" height="67" viewBox="0 0 65 67" fill="none" xmlns="http://www.w3.org/2000/svg">
<path fill-rule="evenodd" clip-rule="evenodd" d="M34.0352 60.4465C25.6552 58.3855 17.5853 58.5205 9.08529 58.2735C7.42529 58.2255 6.04521 59.5295 5.99521 61.1845C5.94521 62.8405 7.25525 64.2225 8.91525 64.2715C16.9753 64.5055 24.6452 64.3165 32.6052 66.2725C34.2152 66.6685 35.8452 65.6835 36.2352 64.0755C36.6352 62.4685 35.6452 60.8415 34.0352 60.4465Z" fill="#1400FF"/>
<path fill-rule="evenodd" clip-rule="evenodd" d="M50.2752 42.9365C37.4952 28.9545 21.0553 15.7805 4.4553 6.57248C3.0053 5.76948 1.17522 6.29251 0.375221 7.74051C-0.424779 9.18851 0.0952649 11.0165 1.54526 11.8195C17.5953 20.7235 33.4953 33.4645 45.8453 46.9845C46.9653 48.2065 48.8653 48.2915 50.0853 47.1745C51.3053 46.0575 51.3952 44.1585 50.2752 42.9365Z" fill="#1400FF"/>
<path fill-rule="evenodd" clip-rule="evenodd" d="M64.2353 39.3947C66.3453 26.6067 62.7453 13.4257 57.6553 1.7977C56.9853 0.280699 55.2154 -0.411322 53.7054 0.251678C52.1854 0.915678 51.4953 2.6867 52.1553 4.2037C56.7953 14.7937 60.2354 26.7707 58.3154 38.4177C58.0454 40.0517 59.1553 41.5967 60.7853 41.8657C62.4153 42.1357 63.9653 41.0277 64.2353 39.3947Z" fill="#1400FF"/>
</svg>
