<svg width="150" height="121" viewBox="0 0 150 121" fill="none" xmlns="http://www.w3.org/2000/svg">
<path d="M50.0096 4.0465L40.1122 17.3719L34.6058 3.89178C34.5549 3.771 34.5365 3.639 34.5524 3.50891C34.5683 3.37881 34.6179 3.25517 34.6964 3.15019C34.7663 3.05296 34.8585 2.97384 34.9652 2.91952C35.0719 2.86519 35.1901 2.83721 35.3098 2.8379H35.3767L50.0096 4.0465Z" fill="#2CF608"/>
<path d="M121.342 114.962C118.37 117.934 114.152 119.48 108.803 119.563C103.637 119.638 97.64 118.349 90.9794 115.729C77.2777 110.343 62.2991 99.9434 48.8036 86.4465C35.3082 72.9497 24.9075 57.9725 19.521 44.2707C16.9017 37.6101 15.6178 31.6131 15.6875 26.4469C15.7656 21.0981 17.3129 16.8798 20.2877 13.9078C23.2626 10.9358 27.478 9.3912 32.8255 9.30756C37.9903 9.23228 43.9873 10.5217 50.6507 13.1397C64.3524 18.5275 79.3311 28.9282 92.8265 42.4237C106.322 55.9191 116.723 70.8964 122.111 84.5995C124.73 91.2629 126.014 97.2599 125.943 102.425C125.86 107.774 124.313 111.992 121.342 114.962ZM20.9151 14.5351C18.1131 17.3371 16.6549 21.3476 16.5811 26.4553C16.5072 31.5058 17.7757 37.3871 20.3519 43.9404C25.6951 57.5292 36.0233 72.3991 49.4351 85.8109C62.8469 99.2227 77.7168 109.551 91.3015 114.893C97.8533 117.469 103.737 118.737 108.787 118.657C113.894 118.583 117.905 117.123 120.707 114.323C123.509 111.522 124.967 107.51 125.041 102.402C125.116 97.3547 123.847 91.472 121.277 84.9173C115.932 71.3271 105.603 56.4572 92.1922 43.0468C78.7818 29.6364 63.9105 19.3152 50.3175 13.9663C43.7657 11.3916 37.8802 10.123 32.8325 10.2025C27.7346 10.275 23.717 11.7359 20.9151 14.5351Z" fill="black"/>
<path fill-rule="evenodd" clip-rule="evenodd" d="M108.82 120.669L108.819 120.669C103.465 120.747 97.3212 119.412 90.5747 116.759C76.6962 111.303 61.5939 100.803 48.0215 87.2288C34.4492 73.6551 23.9477 58.5542 18.4917 44.6757C15.8382 37.9283 14.5093 31.7848 14.5815 26.4321L14.5815 26.4309C14.6626 20.8761 16.276 16.3524 19.506 13.1254C22.7355 9.89895 27.2558 8.28858 32.8082 8.20174L32.8094 8.20172C38.1621 8.1237 44.3061 9.45869 51.0552 12.1103L51.0555 12.1104C64.9339 17.5678 80.0363 28.0693 93.6087 41.6417C107.181 55.214 117.683 70.315 123.14 84.1949L123.14 84.195C125.793 90.945 127.122 97.0886 127.049 102.44L127.049 102.442C126.963 107.996 125.35 112.519 122.125 115.745C118.898 118.972 114.374 120.583 108.82 120.669ZM15.6876 26.4425C15.6876 26.444 15.6876 26.4455 15.6875 26.447C15.6178 31.6124 16.9013 37.6083 19.5198 44.2676C19.5198 44.2676 19.5198 44.2677 19.5198 44.2677C19.5202 44.2688 19.5206 44.2698 19.5211 44.2709C24.9072 57.9719 35.3071 72.9483 48.8016 86.4446C48.8023 86.4453 48.8029 86.446 48.8036 86.4467C62.2971 99.9416 77.2734 110.34 90.9735 115.727C90.9755 115.728 90.9775 115.729 90.9795 115.729C97.6385 118.348 103.634 119.638 108.8 119.563C108.8 119.563 108.801 119.563 108.801 119.563C108.802 119.563 108.803 119.563 108.803 119.563C114.152 119.481 118.37 117.935 121.342 114.963C121.343 114.962 121.344 114.961 121.344 114.961C124.314 111.99 125.86 107.773 125.943 102.425C125.943 102.422 125.943 102.419 125.943 102.416C125.943 102.416 125.943 102.416 125.943 102.416C126.012 97.2529 124.728 91.259 122.111 84.5996C122.11 84.597 122.108 84.5944 122.107 84.5918C122.107 84.5915 122.107 84.5912 122.107 84.591C116.718 70.8902 106.319 55.9164 92.8265 42.4238C92.8247 42.422 92.8228 42.4201 92.821 42.4182C79.327 28.9255 64.3506 18.5269 50.6507 13.1398C50.6484 13.1389 50.6462 13.138 50.6439 13.1371C50.6438 13.1371 50.6437 13.137 50.6435 13.137C43.983 10.5209 37.9885 9.23246 32.8255 9.30771C32.8236 9.30774 32.8217 9.30777 32.8198 9.3078C32.8193 9.3078 32.8188 9.30781 32.8184 9.30782C27.4745 9.39271 23.2616 10.9371 20.2881 13.9076C20.288 13.9077 20.2879 13.9078 20.2878 13.9079C17.3138 16.8791 15.7665 21.0957 15.6876 26.4423C15.6876 26.4424 15.6876 26.4424 15.6876 26.4425ZM16.5811 26.4554C16.5811 26.4566 16.581 26.4579 16.581 26.4591C16.581 26.4594 16.581 26.4597 16.581 26.4601C16.508 31.5095 17.7765 37.3893 20.3519 43.9405C20.3523 43.9416 20.3527 43.9426 20.3531 43.9437C20.3531 43.9437 20.3532 43.9437 20.3532 43.9438C25.6968 57.5317 36.0244 72.4003 49.4351 85.811C49.4358 85.8117 49.4366 85.8124 49.4373 85.8131C62.8485 99.2239 77.7176 109.551 91.3015 114.893C91.3035 114.894 91.3054 114.894 91.3074 114.895C91.3074 114.895 91.3074 114.895 91.3075 114.895C97.8569 117.47 103.739 118.738 108.787 118.657C108.788 118.657 108.788 118.657 108.789 118.657C108.79 118.657 108.79 118.657 108.79 118.657C113.895 118.582 117.903 117.123 120.705 114.325C120.705 114.324 120.706 114.323 120.707 114.323C123.507 111.524 124.965 107.515 125.041 102.412C125.041 102.412 125.041 102.411 125.041 102.411C125.041 102.408 125.041 102.405 125.041 102.403C125.116 97.357 123.849 91.4773 121.28 84.9261C121.28 84.926 121.28 84.926 121.28 84.926C121.279 84.9232 121.278 84.9203 121.277 84.9175C115.933 71.3291 105.606 56.4615 92.1978 43.0525C92.196 43.0507 92.1941 43.0488 92.1923 43.047C78.7842 29.639 63.9158 19.319 50.3248 13.9693C50.3247 13.9693 50.3246 13.9693 50.3246 13.9692C50.3222 13.9683 50.3199 13.9674 50.3176 13.9665C43.7687 11.3929 37.8857 10.1244 32.8395 10.2025C32.8392 10.2025 32.8389 10.2025 32.8385 10.2026C32.8365 10.2026 32.8345 10.2026 32.8325 10.2026C27.7346 10.2751 23.717 11.7361 20.9151 14.5352C20.915 14.5353 20.9149 14.5354 20.9148 14.5355C18.113 17.3375 16.655 21.3479 16.5811 26.4554ZM21.6968 15.3178C19.1526 17.8622 17.758 21.5652 17.6871 26.4714L17.6871 26.4716C17.6159 31.3334 18.8385 37.0674 21.3813 43.5358C26.655 56.9477 36.8823 71.6939 50.2173 85.0289C63.5523 98.3639 78.2986 108.591 91.7063 113.864C98.1733 116.406 103.909 117.629 108.769 117.551L108.771 117.551C113.677 117.48 117.38 116.084 119.925 113.54C122.469 110.997 123.864 107.293 123.935 102.387L123.935 102.386C124.007 97.5271 122.785 91.7917 120.247 85.3213C114.972 71.9083 104.743 57.1624 91.4101 43.8291C78.0769 30.4959 63.3294 20.2754 49.913 14.9959C43.4459 12.4545 37.7082 11.2321 32.8499 11.3086L32.8482 11.3086C27.9521 11.3783 24.2416 12.7755 21.6968 15.3178Z" fill="black"/>
<path d="M129.16 66.9622C128.062 68.0607 126.881 69.1591 125.619 70.2576C114.509 79.9181 98.3636 88.3937 80.1564 94.1245C61.9492 99.8553 43.8619 102.153 29.222 100.597C22.1014 99.8399 16.188 98.2117 11.6436 95.7569C6.93598 93.2156 3.91097 89.8951 2.64939 85.8859C1.38781 81.8767 1.9663 77.4228 4.36819 72.6428C6.68921 68.0272 10.6036 63.3029 16.0068 58.6065C27.1143 48.9474 43.2597 40.4718 61.4683 34.741C79.6769 29.0102 97.7656 26.7115 112.403 28.2686C119.523 29.0242 125.437 30.6524 129.981 33.1072C134.689 35.6499 137.715 38.9704 138.975 42.9782C140.236 46.986 139.658 51.4413 137.257 56.2213C135.478 59.7607 132.764 63.3586 129.16 66.9622ZM13.0975 62.5376C9.56368 66.07 6.90529 69.5927 5.16974 73.0443C2.8752 77.6096 2.31481 81.8391 3.49693 85.6182C4.67905 89.3974 7.56886 92.5437 12.0646 94.9707C16.5059 97.3712 22.3091 98.9645 29.3113 99.7103C43.8341 101.253 61.7917 98.9673 79.8846 93.2727C97.9775 87.5782 114.013 79.1654 125.037 69.5871C130.348 64.9687 134.195 60.3364 136.468 55.8254C138.761 51.2614 139.321 47.0306 138.132 43.2528C136.943 39.4751 134.061 36.3274 129.564 33.899C125.123 31.5 119.32 29.9066 112.318 29.1594C97.799 27.6148 79.8372 29.901 61.7443 35.5969C43.6514 41.2901 27.6189 49.7029 16.6006 59.2854C15.347 60.3681 14.1793 61.4521 13.0975 62.5376Z" fill="black"/>
<path fill-rule="evenodd" clip-rule="evenodd" d="M126.346 71.0921L126.345 71.0925C115.092 80.8776 98.7996 89.4163 80.4886 95.1797C62.1775 100.943 43.9339 103.273 29.1052 101.697C21.8929 100.93 15.8279 99.2745 11.1179 96.7302C6.22933 94.0912 2.96412 90.571 1.59435 86.218C0.224569 81.865 0.885745 77.11 3.3799 72.1463L3.38005 72.146C5.78537 67.3628 9.80799 62.5292 15.2811 57.772C26.5319 47.9882 42.8239 39.4495 61.1363 33.6861C79.4487 27.9226 97.6937 25.5917 112.52 27.1689C119.732 27.9341 125.797 29.5899 130.507 32.1342C135.395 34.7744 138.662 38.2945 140.031 42.6466C141.399 46.9979 140.739 51.7542 138.245 56.7181L137.456 56.3218L138.245 56.7182C136.4 60.3887 133.606 64.0804 129.942 67.7444C128.824 68.8623 127.625 69.9781 126.346 71.0921ZM129.99 33.1119C129.987 33.1104 129.984 33.1089 129.981 33.1074C125.439 30.6537 119.529 29.0258 112.413 28.2698C112.413 28.2698 112.412 28.2698 112.412 28.2698C112.409 28.2694 112.406 28.2691 112.403 28.2688C97.7673 26.7118 79.681 29.0099 61.4744 34.7392C61.4744 34.7392 61.4744 34.7393 61.4743 34.7393C61.4723 34.7399 61.4703 34.7405 61.4684 34.7411C43.2621 40.4712 27.1185 48.9453 16.0112 58.6029C16.0104 58.6036 16.0096 58.6043 16.0088 58.6049C16.0082 58.6055 16.0075 58.6061 16.0069 58.6066C14.7438 59.7045 13.5621 60.8038 12.4631 61.903C12.4627 61.9034 12.4623 61.9038 12.4619 61.9042C8.86048 65.5062 6.14714 69.1058 4.36887 72.6417C4.36884 72.6417 4.36882 72.6418 4.36879 72.6418C4.36861 72.6422 4.36843 72.6425 4.36824 72.6429C1.96682 77.4221 1.38809 81.8751 2.64873 85.8837C2.64897 85.8845 2.64921 85.8853 2.64945 85.886C3.91076 89.8943 6.93473 93.2143 11.6406 95.7554C11.6407 95.7554 11.6408 95.7555 11.641 95.7556C11.6418 95.7561 11.6427 95.7565 11.6436 95.757C16.187 98.2113 22.0986 99.8393 29.2169 100.596C29.217 100.596 29.2171 100.597 29.2172 100.597C29.2188 100.597 29.2204 100.597 29.2221 100.597C43.8611 102.153 61.947 99.8557 80.1531 94.1257C80.1542 94.1254 80.1553 94.125 80.1565 94.1246C98.3637 88.3939 114.509 79.9183 125.619 70.2578C125.619 70.2577 125.62 70.2576 125.62 70.2576C126.882 69.1592 128.062 68.0607 129.16 66.9623C132.763 63.3592 135.477 59.7617 137.256 56.2227C137.256 56.2224 137.256 56.2222 137.256 56.2219C137.256 56.2218 137.257 56.2216 137.257 56.2215C139.657 51.4447 140.235 46.9923 138.978 42.9867C138.977 42.9839 138.976 42.9811 138.975 42.9784C137.716 38.973 134.692 35.654 129.99 33.1119C129.99 33.1119 129.99 33.1119 129.99 33.1119ZM129.564 33.8992C129.562 33.8977 129.559 33.8961 129.556 33.8946C125.116 31.4981 119.315 29.9063 112.318 29.1596C112.315 29.1592 112.311 29.1589 112.308 29.1586C112.308 29.1585 112.308 29.1585 112.308 29.1585C97.7912 27.616 79.8333 29.9024 61.7444 35.5971C61.7424 35.5977 61.7403 35.5983 61.7383 35.599C43.6479 41.2921 27.6177 49.7041 16.6007 59.2855C16.6 59.2861 16.5994 59.2866 16.5987 59.2872C16.5987 59.2873 16.5986 59.2873 16.5986 59.2874C15.3457 60.3694 14.1787 61.4529 13.0976 62.5377C9.56374 66.0701 6.90534 69.5928 5.1698 73.0444C5.16963 73.0447 5.16946 73.0451 5.16929 73.0454C5.16925 73.0455 5.1692 73.0456 5.16916 73.0457C2.87515 77.6106 2.31497 81.8396 3.49699 85.6184C3.49708 85.6187 3.49716 85.619 3.49725 85.6192C4.67954 89.398 7.56926 92.544 12.0646 94.9708C12.0655 94.9713 12.0664 94.9718 12.0673 94.9723C12.0673 94.9723 12.0674 94.9723 12.0675 94.9724C16.5084 97.372 22.3107 98.9648 29.3113 99.7105C29.313 99.7106 29.3146 99.7108 29.3162 99.711C43.8382 101.253 61.7938 98.9668 79.8847 93.2729C79.8858 93.2725 79.8869 93.2722 79.8881 93.2718C97.9792 87.5774 114.013 79.1652 125.036 69.5877C125.036 69.5876 125.036 69.5875 125.036 69.5874C125.037 69.5874 125.037 69.5873 125.037 69.5872C126.283 68.5034 127.449 67.4187 128.533 66.335C132.067 62.8012 134.729 59.2779 136.468 55.8256C136.468 55.8254 136.468 55.8253 136.468 55.8251C138.761 51.2613 139.321 47.0306 138.132 43.253C138.131 43.2501 138.13 43.2473 138.129 43.2444C136.939 39.4705 134.058 36.3257 129.564 33.8992ZM124.311 68.7523C129.553 64.1942 133.292 59.6715 135.479 55.329C137.682 50.9445 138.157 47.0155 137.077 43.5851C135.997 40.1545 133.359 37.2052 129.039 34.8725L129.039 34.8724C124.764 32.5631 119.112 30.997 112.201 30.2595C97.8712 28.735 80.0658 30.9888 62.0765 36.6521L62.0764 36.6522C44.0871 42.3127 28.2013 50.6625 17.3266 60.1201L17.3237 60.1227C16.0892 61.1887 14.9418 62.2541 13.881 63.3185L13.8795 63.32C10.4061 66.7921 7.8276 70.221 6.1581 73.5411M124.311 68.7523C113.431 78.206 97.5419 86.5559 79.5526 92.2178C61.5632 97.8798 43.7619 100.134 29.4282 98.6105C22.5165 97.8744 16.8655 96.3083 12.5905 93.9977L12.5901 93.9975C8.26996 91.6653 5.62533 88.7174 4.55265 85.2882C3.47885 81.8553 3.95385 77.9269 6.15801 73.5413" fill="black"/>
<path d="M143.391 62.3866C146.755 59.0223 146.755 53.5676 143.391 50.2032C140.027 46.8388 134.572 46.8388 131.208 50.2032C127.843 53.5676 127.843 59.0223 131.208 62.3866C134.572 65.751 140.027 65.751 143.391 62.3866Z" fill="black"/>
<path d="M80.8402 75.6906C87.1846 69.3462 87.1846 59.06 80.8402 52.7156C74.4959 46.3712 64.2096 46.3712 57.8652 52.7156C51.5208 59.06 51.5208 69.3462 57.8652 75.6906C64.2096 82.035 74.4959 82.035 80.8402 75.6906Z" fill="#0500F5"/>
<path d="M64.0222 62.1951C66.6984 62.1951 68.8678 60.0256 68.8678 57.3495C68.8678 54.6733 66.6984 52.5039 64.0222 52.5039C61.3461 52.5039 59.1766 54.6733 59.1766 57.3495C59.1766 60.0256 61.3461 62.1951 64.0222 62.1951Z" fill="white"/>
<path d="M56.253 5.67486L44.4624 24.8146C44.3895 24.9359 44.2839 25.0342 44.1576 25.098C44.0313 25.1619 43.8896 25.1888 43.7487 25.1757C43.6075 25.1657 43.4721 25.116 43.3579 25.0324C43.2437 24.9488 43.1554 24.8347 43.1033 24.7031L40.1075 17.372L50.005 4.04663L55.6605 4.51228C55.7913 4.52183 55.9172 4.56544 56.0258 4.63881C56.1343 4.71219 56.2218 4.81277 56.2795 4.93048C56.3403 5.04612 56.3698 5.17564 56.3652 5.30621C56.3605 5.43678 56.3219 5.56384 56.253 5.67486Z" fill="#2CF608"/>
<path d="M57.0314 4.55131C56.9084 4.30647 56.7244 4.09751 56.497 3.94463C56.2697 3.79175 56.0067 3.70018 55.7336 3.67869L35.4396 2.00588C35.1665 1.98234 34.8919 2.02976 34.6425 2.14358C34.3932 2.2574 34.1774 2.4337 34.0163 2.65544C33.8537 2.8758 33.7508 3.13445 33.7175 3.40629C33.6843 3.67813 33.7219 3.954 33.8267 4.20703L42.3302 25.0182C42.4413 25.2922 42.6265 25.53 42.8651 25.7048C43.1036 25.8796 43.3861 25.9846 43.6809 26.0079C43.7256 26.0079 43.7702 26.0079 43.8203 26.0079C44.0933 26.0081 44.3618 25.9382 44.6 25.8049C44.8382 25.6717 45.0382 25.4795 45.1809 25.2468L56.9729 6.10705C57.1149 5.8744 57.1948 5.60918 57.2051 5.3368C57.2153 5.06443 57.1555 4.79398 57.0314 4.55131V4.55131ZM43.7479 25.1757C43.6067 25.1657 43.4712 25.1161 43.3571 25.0325C43.2429 24.9489 43.1546 24.8347 43.1024 24.7031L34.599 3.89195C34.5481 3.77117 34.5297 3.63917 34.5456 3.50907C34.5615 3.37897 34.6111 3.25533 34.6896 3.15036C34.7595 3.05312 34.8516 2.974 34.9583 2.91968C35.065 2.86535 35.1832 2.83737 35.303 2.83807H35.3699L55.6639 4.51088C55.7946 4.52043 55.9205 4.56411 56.0291 4.63748C56.1377 4.71086 56.2252 4.81137 56.2828 4.92908C56.3433 5.04525 56.3722 5.17526 56.3669 5.30611C56.3615 5.43695 56.3219 5.56408 56.2522 5.67489L44.463 24.8146C44.39 24.9362 44.2841 25.0345 44.1576 25.0984C44.031 25.1623 43.889 25.1891 43.7479 25.1757V25.1757Z" fill="black"/>
<path fill-rule="evenodd" clip-rule="evenodd" d="M35.3698 2.83797L55.6638 4.51078C55.6642 4.51081 55.6645 4.51084 55.6649 4.51086C55.6659 4.51094 55.667 4.51102 55.668 4.5111C55.7972 4.52127 55.9216 4.5648 56.029 4.63739C56.0295 4.6377 56.03 4.63802 56.0304 4.63834C56.1379 4.71132 56.2246 4.81093 56.282 4.92749C56.2822 4.92798 56.2825 4.92848 56.2827 4.92899C56.2834 4.93033 56.2841 4.93168 56.2848 4.93303C56.3437 5.04791 56.372 5.17612 56.3668 5.30516C56.3668 5.30488 56.3668 5.30544 56.3668 5.30516C56.3616 5.43264 56.3239 5.55744 56.2574 5.66621C56.2568 5.6672 56.2562 5.66819 56.2556 5.66918C56.2544 5.67106 56.2532 5.67293 56.2521 5.67479L44.4629 24.8145C44.397 24.9243 44.3043 25.0151 44.1937 25.0788C44.1818 25.0856 44.1698 25.0921 44.1575 25.0983C44.0528 25.1512 43.9374 25.1787 43.8208 25.179C43.821 25.179 43.8206 25.179 43.8208 25.179C43.7967 25.179 43.7719 25.1779 43.7478 25.1756C43.7475 25.1756 43.7471 25.1756 43.7468 25.1756C43.7246 25.174 43.7026 25.1714 43.6809 25.1679C43.5642 25.149 43.4533 25.1028 43.3574 25.0327C43.3575 25.0328 43.3572 25.0326 43.3574 25.0327C43.2437 24.9494 43.1553 24.8356 43.103 24.7047C43.1028 24.7042 43.1026 24.7036 43.1024 24.7031L34.5989 3.89185C34.5989 3.89198 34.5988 3.89171 34.5989 3.89185C34.5984 3.89066 34.5977 3.88906 34.5972 3.88786C34.5476 3.76817 34.5298 3.63764 34.5455 3.50897C34.5455 3.50845 34.5456 3.50792 34.5457 3.50739C34.5617 3.37839 34.6109 3.25578 34.6886 3.1515C34.6889 3.15109 34.6892 3.15067 34.6895 3.15026C34.6904 3.14903 34.6912 3.1478 34.6921 3.14658C34.7617 3.05103 34.8529 2.97322 34.9582 2.91958C34.9686 2.91429 34.9791 2.90924 34.9898 2.90445C35.088 2.86007 35.1948 2.83734 35.3029 2.83797H35.3698ZM35.3029 1.9999C35.3045 1.9999 35.3061 1.9999 35.3077 1.99991C35.3284 1.99997 35.3491 2.00044 35.3698 2.00131C35.3926 2.00227 35.4155 2.00373 35.4384 2.00569C35.4387 2.00572 35.4391 2.00575 35.4395 2.00578L55.7335 3.67859C56.0066 3.70008 56.2696 3.79166 56.4969 3.94453C56.497 3.94457 56.4969 3.9445 56.4969 3.94453C56.7214 4.09546 56.9037 4.30115 57.0266 4.54194C57.0282 4.54502 57.0297 4.54812 57.0313 4.55121C57.0328 4.55422 57.0344 4.55723 57.0359 4.56025C57.1569 4.80058 57.2151 5.06771 57.205 5.33671C57.2049 5.33796 57.2049 5.33922 57.2048 5.34047C57.194 5.61153 57.1141 5.87537 56.9728 6.10695L45.1812 25.2461C45.1797 25.2485 45.1778 25.2516 45.1763 25.254C45.0339 25.4834 44.8356 25.673 44.5999 25.8049C44.5776 25.8173 44.555 25.8292 44.5322 25.8406C44.3114 25.9506 44.0677 26.008 43.8203 26.0078H43.6809C43.6768 26.0075 43.6728 26.0072 43.6688 26.0068C43.3784 25.9816 43.1003 25.8771 42.865 25.7047C42.8649 25.7047 42.865 25.7048 42.865 25.7047C42.6266 25.53 42.4414 25.2923 42.3303 25.0185C42.3302 25.0184 42.3303 25.0187 42.3303 25.0185L33.8268 4.20734C33.7222 3.9548 33.6844 3.67911 33.7173 3.40778C33.7173 3.40725 33.7174 3.40672 33.7174 3.40619C33.7503 3.13731 33.8514 2.88133 34.0109 2.66255C34.0127 2.66014 34.0144 2.65774 34.0162 2.65534C34.0175 2.65353 34.0188 2.65172 34.0202 2.64992C34.1669 2.44975 34.3583 2.28697 34.5788 2.17425C34.5998 2.16354 34.621 2.15328 34.6424 2.14348C34.8502 2.04864 35.0755 1.9999 35.3029 1.9999ZM33.1238 2.00182C33.3968 1.62734 33.7617 1.32961 34.1832 1.13723C34.6053 0.944576 35.0699 0.864123 35.5321 0.903565C35.5329 0.903631 35.5337 0.903698 35.5345 0.903766L55.8202 2.5759C55.821 2.57596 55.8218 2.57602 55.8226 2.57608C56.2846 2.61282 56.7294 2.76793 57.1141 3.02663C57.4983 3.28496 57.8095 3.63778 58.0179 4.05113C58.2269 4.4613 58.3276 4.91817 58.3103 5.3783C58.2929 5.83974 58.1575 6.28905 57.9169 6.68324L57.9145 6.68715L46.1238 25.8249C46.1236 25.8252 46.1233 25.8256 46.1231 25.8259C45.8815 26.2195 45.543 26.5447 45.1399 26.7702C44.7364 26.9959 44.2818 27.1142 43.8195 27.1139L43.8201 26.2851C43.7737 26.2851 43.7273 26.2834 43.6809 26.28C43.6737 26.2794 43.6666 26.2789 43.6594 26.2783C43.6584 26.2782 43.6574 26.2781 43.6565 26.278M41.3057 25.4354C41.494 25.899 41.8075 26.3012 42.2112 26.597C42.6154 26.8931 43.094 27.0709 43.5935 27.1105L43.6371 27.1139H43.8195L43.8201 26.2851C44.1098 26.2849 44.3963 26.2168 44.656 26.0857C44.6823 26.0724 44.7082 26.0586 44.7337 26.0441C45.0101 25.8877 45.2421 25.6629 45.4072 25.3906L45.4092 25.3874M41.3057 25.4354C41.3055 25.4348 41.3052 25.4342 41.305 25.4336L32.8046 4.63007C32.8043 4.62917 32.8039 4.62826 32.8035 4.62736C32.6267 4.19893 32.5633 3.73209 32.6195 3.27203C32.6757 2.81228 32.8494 2.37482 33.1238 2.00182M35.8322 3.98594L43.8726 23.6638L55.0191 5.56749L35.8322 3.98594ZM43.8391 24.0735C43.8436 24.074 43.848 24.0745 43.8523 24.0752L43.8197 24.4184L43.8189 24.4276L43.7738 24.9017H43.7672L43.8008 24.4261L43.8258 24.073C43.8303 24.0731 43.8347 24.0732 43.8391 24.0735Z" fill="black"/>
</svg>
